HIERARCHY
ROOT Hips
{
	OFFSET 0.000000 0.000000 0.000000
	CHANNELS 6 Xposition Yposition Zposition Xrotation Yrotation Zrotation
	JOINT LeftUpLeg_virtual
	{
		OFFSET 0.000000 0.000000 0.000000
		CHANNELS 3 Xrotation Yrotation Zrotation
		JOINT LeftUpLeg
		{
			OFFSET 15.427100 -6.655098 0.678600
			CHANNELS 3 Xrotation Yrotation Zrotation
			JOINT LeftLeg
			{
				OFFSET 4.081073 -39.591068 13.024000
				CHANNELS 3 Xrotation Yrotation Zrotation
				JOINT LeftFoot
				{
					OFFSET -4.081074 -37.707932 -15.979700
					CHANNELS 3 Xrotation Yrotation Zrotation
					JOINT LeftToeBase
					{
						OFFSET 5.346399 -15.068900 20.645000
						CHANNELS 3 Xrotation Yrotation Zrotation
						JOINT LeftToe_End
						{
							OFFSET 2.754700 0.931300 11.300900
							CHANNELS 3 Xrotation Yrotation Zrotation
							End Site
							{
								OFFSET 0 0 0
							}
						}
					}
				}
			}
		}
	}
	JOINT RightUpLeg_virtual
	{
		OFFSET 0.000000 0.000000 0.000000
		CHANNELS 3 Xrotation Yrotation Zrotation
		JOINT RightUpLeg
		{
			OFFSET -15.569500 -6.655098 0.678600
			CHANNELS 3 Xrotation Yrotation Zrotation
			JOINT RightLeg
			{
				OFFSET -4.081825 -39.591045 13.023800
				CHANNELS 3 Xrotation Yrotation Zrotation
				JOINT RightFoot
				{
					OFFSET 4.081824 -37.707954 -15.979600
					CHANNELS 3 Xrotation Yrotation Zrotation
					JOINT RightToeBase
					{
						OFFSET -5.346400 -15.068900 20.645000
						CHANNELS 3 Xrotation Yrotation Zrotation
						JOINT RightToe_End
						{
							OFFSET -2.754700 0.931300 11.300900
							CHANNELS 3 Xrotation Yrotation Zrotation
							End Site
							{
								OFFSET 0 0 0
							}
						}
					}
				}
			}
		}
	}
	JOINT Spine_virtual
	{
		OFFSET 0.000000 0.000000 0.000000
		CHANNELS 3 Xrotation Yrotation Zrotation
		JOINT Spine
		{
			OFFSET -0.279200 12.230698 -2.892100
			CHANNELS 3 Xrotation Yrotation Zrotation
			JOINT Spine1
			{
				OFFSET -0.232667 10.192268 -1.242267
				CHANNELS 3 Xrotation Yrotation Zrotation
				JOINT Spine1_split
				{
					OFFSET -0.232667 10.192268 -1.242267
					CHANNELS 3 Xrotation Yrotation Zrotation
					JOINT Spine2
					{
						OFFSET -0.232667 10.192268 -1.242267
						CHANNELS 3 Xrotation Yrotation Zrotation
						JOINT Neck_virtual
						{
							OFFSET 0.000000 0.000000 0.000000
							CHANNELS 3 Xrotation Yrotation Zrotation
							JOINT Neck
							{
								OFFSET -0.418800 17.814194 8.416900
								CHANNELS 3 Xrotation Yrotation Zrotation
								JOINT Head
								{
									OFFSET 0.000000 7.031097 3.806800
									CHANNELS 3 Xrotation Yrotation Zrotation
									JOINT HeadTop_End
									{
										OFFSET 0.000000 24.646606 12.978600
										CHANNELS 3 Xrotation Yrotation Zrotation
										End Site
										{
											OFFSET 0 0 0
										}
									}
								}
							}
						}
						JOINT LeftShoulder_virtual
						{
							OFFSET 0.000000 0.000000 0.000000
							CHANNELS 3 Xrotation Yrotation Zrotation
							JOINT LeftShoulder
							{
								OFFSET 8.476499 7.247704 -3.868750
								CHANNELS 3 Xrotation Yrotation Zrotation
								JOINT LeftShoulder_split
								{
									OFFSET 8.476499 7.247704 -3.868750
									CHANNELS 3 Xrotation Yrotation Zrotation
									JOINT LeftArm
									{
										OFFSET 9.308998 -2.777710 0.208600
										CHANNELS 3 Xrotation Yrotation Zrotation
										JOINT LeftForeArm
										{
											OFFSET 29.972298 0.000000 0.000000
											CHANNELS 3 Xrotation Yrotation Zrotation
											JOINT LeftHand
											{
												OFFSET 26.026505 0.000000 0.000000
												CHANNELS 3 Xrotation Yrotation Zrotation
												End Site
												{
													OFFSET 0 0 0
												}
											}
										}
									}
								}
							}
						}
						JOINT RightShoulder_virtual
						{
							OFFSET 0.000000 0.000000 0.000000
							CHANNELS 3 Xrotation Yrotation Zrotation
							JOINT RightShoulder
							{
								OFFSET -7.570500 7.247704 -3.868750
								CHANNELS 3 Xrotation Yrotation Zrotation
								JOINT RightShoulder_split
								{
									OFFSET -7.570500 7.247704 -3.868750
									CHANNELS 3 Xrotation Yrotation Zrotation
									JOINT RightArm
									{
										OFFSET -9.308998 -2.777710 0.208500
										CHANNELS 3 Xrotation Yrotation Zrotation
										JOINT RightForeArm
										{
											OFFSET -29.972300 0.000000 0.000000
											CHANNELS 3 Xrotation Yrotation Zrotation
											JOINT RightHand
											{
												OFFSET -26.026505 0.000000 0.000000
												CHANNELS 3 Xrotation Yrotation Zrotation
												End Site
												{
													OFFSET 0 0 0
												}
											}
										}
									}
								}
							}
						}
					}
				}
			}
		}
	}
}
MOTION
Frames: 8
Frame Time: 0.03333333
6.824488 92.014885 -0.326397 0.000000 0.000000 0.000000 -1.409848 -16.531660 -2.931871 -9.686921 23.694217 10.853837 17.871292 8.967985 3.993299 -9.370285 8.130570 -9.470216 2.710083 0.114159 -1.383277 0.000000 0.000000 0.000000 -0.996935 -14.817108 -2.972362 -5.546182 -18.583072 -9.398865 10.169832 10.249548 0.358812 -4.219901 7.365673 8.331308 -0.876440 0.295285 1.060900 0.000000 0.000000 0.000000 -2.002783 -15.501326 -3.679438 0.547477 -0.358979 -1.006211 0.102874 -0.951062 -0.562180 1.066395 -0.938383 0.137477 0.000000 0.000000 0.000000 0.985271 -0.443172 -0.625686 1.227046 1.208771 2.498139 -0.915927 14.542359 -1.148194 0.000000 0.000000 0.000000 0.583221 -0.258236 -0.670964 -0.536974 8.951508 -0.135022 -5.615579 0.117439 -1.086328 40.447260 -59.850981 -27.964471 0.064444 -28.429744 1.446136 0.000000 0.000000 0.000000 1.035707 -0.527351 -1.048155 5.222603 4.629570 -14.348236 1.058111 4.324198 -0.263333 -39.944971 -17.802178 40.641675 179.750389 70.801686 179.966564 0.000000 0.000000 0.000000 
6.573806 92.061768 -0.333344 0.000000 0.000000 0.000000 -1.389279 -16.154600 -2.940640 -9.714343 23.520465 11.150053 17.802193 8.976978 4.029145 -9.208999 7.886035 -9.746251 2.676894 0.122153 -1.367354 0.000000 0.000000 0.000000 -0.961742 -14.440386 -2.984309 -5.444840 -18.384513 -9.283887 10.345683 10.203801 0.738518 -4.498467 6.782978 7.936594 -0.687566 0.283605 1.058386 0.000000 0.000000 0.000000 -1.978876 -15.158082 -3.681959 0.505469 -0.334030 -0.857394 0.105238 -0.948735 -0.478828 1.053897 -0.838062 0.123486 0.000000 0.000000 0.000000 0.937524 -0.457604 -0.533728 1.155660 1.196560 2.400490 -0.988971 14.391700 -1.123482 0.000000 0.000000 0.000000 0.533776 -0.245324 -0.599464 -0.508139 8.929429 -0.290609 -5.614702 -0.035993 -1.039957 40.580585 -60.105330 -27.842312 0.018193 -28.423410 1.422882 0.000000 0.000000 0.000000 1.016119 -0.513679 -0.983555 5.187643 4.725610 -13.522049 1.040669 4.306264 -0.327758 -37.387943 -15.205493 40.888948 179.878428 71.527585 179.879712 0.000000 0.000000 0.000000 
6.304924 92.117081 -0.338573 0.000000 0.000000 0.000000 -1.359791 -15.742725 -2.945767 -9.733024 23.273998 11.459115 17.725444 8.981945 4.048263 -9.022404 7.658012 -10.027967 2.670010 0.133216 -1.355677 0.000000 0.000000 0.000000 -0.925202 -14.027248 -2.996850 -5.333897 -18.220083 -9.145973 10.513314 10.170115 1.103180 -4.734933 6.213211 7.554604 -0.554982 0.274100 1.052916 0.000000 0.000000 0.000000 -1.938248 -14.799265 -3.685138 0.454283 -0.318416 -0.711869 0.112736 -0.957248 -0.402511 1.045948 -0.744070 0.095018 0.000000 0.000000 0.000000 0.896816 -0.476746 -0.451329 1.075161 1.187891 2.350850 -1.042765 14.241126 -1.079523 0.000000 0.000000 0.000000 0.495493 -0.242601 -0.534167 -0.479065 8.898300 -0.401428 -5.586667 -0.189739 -1.014135 40.615542 -60.383052 -27.782175 -0.036516 -28.352827 1.388215 0.000000 0.000000 0.000000 0.999517 -0.509255 -0.923397 5.138968 4.816325 -12.567876 1.028829 4.286269 -0.401689 -34.761408 -12.481618 41.035592 -179.966742 72.382479 179.770087 0.000000 0.000000 0.000000 
6.022536 92.173553 -0.338673 0.000000 0.000000 0.000000 -1.316144 -15.294317 -2.933600 -9.741102 22.959051 11.749608 17.620100 8.977298 4.060782 -8.811777 7.446845 -10.324182 2.673511 0.146576 -1.346779 0.000000 0.000000 0.000000 -0.877627 -13.586529 -2.996787 -5.231134 -18.093986 -8.997652 10.673597 10.163775 1.427257 -4.922300 5.682970 7.214216 -0.505068 0.265041 1.055082 0.000000 0.000000 0.000000 -1.879685 -14.418857 -3.676886 0.394223 -0.313733 -0.575908 0.122720 -0.973243 -0.338581 1.039045 -0.637333 0.058519 0.000000 0.000000 0.000000 0.859248 -0.498449 -0.383902 0.976120 1.178304 2.352965 -1.088693 14.078439 -1.005185 0.000000 0.000000 0.000000 0.462312 -0.245380 -0.481925 -0.454063 8.868592 -0.451244 -5.526613 -0.338062 -0.999110 40.557926 -60.686183 -27.798259 -0.097741 -28.208111 1.343691 0.000000 0.000000 0.000000 0.982019 -0.512291 -0.873792 5.080017 4.900925 -11.492192 1.004759 4.242295 -0.465532 -32.034154 -9.609167 41.033649 -179.777614 73.373642 179.632869 0.000000 0.000000 0.000000 
5.735809 92.220604 -0.328999 0.000000 0.000000 0.000000 -1.254996 -14.812483 -2.895727 -9.741276 22.597618 12.007067 17.478396 8.961261 4.071128 -8.578695 7.248171 -10.634681 2.673719 0.159388 -1.338120 0.000000 0.000000 0.000000 -0.807342 -13.127974 -2.974053 -5.146815 -18.013577 -8.846067 10.836109 10.182546 1.688993 -5.099536 5.200775 6.876938 -0.460844 0.256234 1.074469 0.000000 0.000000 0.000000 -1.805868 -14.021542 -3.648190 0.329290 -0.322579 -0.454312 0.132206 -0.992475 -0.289774 1.029522 -0.545199 0.022709 0.000000 0.000000 0.000000 0.819654 -0.519935 -0.333642 0.851547 1.161706 2.396250 -1.128502 13.887507 -0.893544 0.000000 0.000000 0.000000 0.428367 -0.250277 -0.444454 -0.438524 8.847596 -0.433419 -5.443212 -0.474614 -0.985165 40.429041 -61.005310 -27.888443 -0.161722 -28.000613 1.296407 0.000000 0.000000 0.000000 0.958424 -0.518651 -0.836391 5.013474 4.974344 -10.320845 0.991143 4.174189 -0.517079 -29.198632 -6.597483 40.870838 -179.564840 74.500070 179.479353 0.000000 0.000000 0.000000 
5.448897 92.243927 -0.311359 0.000000 0.000000 0.000000 -1.172348 -14.323730 -2.828281 -9.738258 22.217362 12.229786 17.307406 8.934495 4.074651 -8.336658 7.061559 -10.949531 2.664058 0.170101 -1.327941 0.000000 0.000000 0.000000 -0.709959 -12.669962 -2.925155 -5.098189 -17.989613 -8.690346 11.016856 10.217216 1.875482 -5.320301 4.769141 6.509194 -0.353787 0.248988 1.114457 0.000000 0.000000 0.000000 -1.714616 -13.625145 -3.593303 0.262402 -0.343040 -0.347638 0.136772 -1.013230 -0.252991 1.011538 -0.450667 -0.014639 0.000000 0.000000 0.000000 0.770778 -0.539373 -0.297394 0.698567 1.137816 2.462303 -1.166320 13.666587 -0.748558 0.000000 0.000000 0.000000 0.385683 -0.254128 -0.418895 -0.432482 8.843214 -0.360512 -5.347129 -0.606156 -0.965216 40.261025 -61.339163 -28.022326 -0.219114 -27.745664 1.253185 0.000000 0.000000 0.000000 0.924854 -0.526229 -0.808849 4.944133 5.043277 -9.087977 0.984845 4.078973 -0.559580 -26.258058 -3.464757 40.563209 -179.344607 75.790552 179.326726 0.000000 0.000000 0.000000 
5.162720 92.238991 -0.282047 0.000000 0.000000 0.000000 -1.067890 -13.857826 -2.735337 -9.742086 21.844606 12.427424 17.124199 8.905898 4.066199 -8.105946 6.896968 -11.246187 2.651155 0.177964 -1.316902 0.000000 0.000000 0.000000 -0.585883 -12.237525 -2.852723 -5.113302 -18.025807 -8.535959 11.257368 10.265367 1.986498 -5.594881 4.392229 6.117264 -0.219852 0.243151 1.166210 0.000000 0.000000 0.000000 -1.604626 -13.241134 -3.516380 0.196305 -0.371785 -0.251180 0.132103 -1.033563 -0.220756 0.995563 -0.379329 -0.038029 0.000000 0.000000 0.000000 0.709580 -0.556595 -0.266657 0.517750 1.109561 2.527839 -1.205089 13.413606 -0.582329 0.000000 0.000000 0.000000 0.328931 -0.254837 -0.397035 -0.434890 8.855602 -0.263760 -5.258530 -0.718943 -0.943399 40.134444 -61.673678 -28.130892 -0.262266 -27.463972 1.222645 0.000000 0.000000 0.000000 0.877575 -0.532962 -0.783855 4.873758 5.114546 -7.837637 0.988758 3.982909 -0.600935 -23.248311 -0.254184 40.166293 -179.130563 77.296336 179.182950 0.000000 0.000000 0.000000 
4.875590 92.209496 -0.248520 0.000000 0.000000 0.000000 -0.940094 -13.433952 -2.625974 -9.757291 21.498306 12.615089 16.949125 8.882261 4.040340 -7.896699 6.762783 -11.518541 2.642882 0.183844 -1.306556 0.000000 0.000000 0.000000 -0.437654 -11.849233 -2.763046 -5.214112 -18.124576 -8.379694 11.594583 10.335978 2.025584 -5.874962 4.077176 5.751709 -0.126830 0.236907 1.214231 0.000000 0.000000 0.000000 -1.466656 -12.883226 -3.422659 0.130397 -0.405782 -0.157178 0.116093 -1.053189 -0.183581 0.988997 -0.319389 -0.056548 0.000000 0.000000 0.000000 0.630481 -0.570836 -0.230948 0.308886 1.077683 2.574545 -1.246056 13.135623 -0.409798 0.000000 0.000000 0.000000 0.256474 -0.253232 -0.370022 -0.442067 8.885416 -0.177937 -5.182371 -0.827092 -0.920620 40.109248 -61.991671 -28.156352 -0.291854 -27.175745 1.209451 0.000000 0.000000 0.000000 0.815413 -0.536412 -0.751667 4.807967 5.196205 -6.611492 0.999546 3.884337 -0.647362 -20.220393 2.972395 39.756267 -178.900645 79.097047 179.016007 0.000000 0.000000 0.000000 
